<?xml version="1.0" encoding="UTF-8"?> <!-- Generator: Adobe Illustrator 23.0.6, SVG Export Plug-In . SVG Version: 6.00 Build 0) --> <svg xmlns="http://www.w3.org/2000/svg" xmlns:xlink="http://www.w3.org/1999/xlink" id="Layer_1" x="0px" y="0px" viewBox="0 0 459.87 140" style="enable-background:new 0 0 459.87 140;" xml:space="preserve"> <style type="text/css"> .st0{fill:#21346A;} .st1{fill:#2C70B8;} </style> <path class="st0" d="M49.93,91.22l3.84,7.46c0,0-7.13,5.7-20.95,3.18C19,99.33,9,87.27,9,71.91s12.3-29.74,30.72-29.74 S69.01,59.4,69.01,66.2v34.61h-8.88V67.63c0-4.93-7.88-16.65-20.22-16.65C27.56,50.98,18,60.81,18,72.33 c0,11.02,8.21,19.45,15.57,20.85C44.56,95.28,49.93,91.22,49.93,91.22"></path> <path class="st0" d="M124.36,58.21l6.88-5.61c0,0-6.63-10.33-22.57-10.33s-29.99,12.76-29.99,29.6s11.37,29.5,28.43,30.53 c17.44,1.04,24.76-10.37,24.76-10.37l-6.13-6.13c0,0-6.36,8.75-17.86,7.71c-12.7-1.16-19.06-9.37-19.06-21.35 s8.48-21.31,20.33-21.31C119.85,50.92,124.36,58.21,124.36,58.21"></path> <path class="st0" d="M141.55,43.77h9.92v35.9c0,5.4,3.43,14.16,15.69,14.16c12.26,0,15.8-9.39,15.8-13.55V43.77h9.56v36.79 c0,4.14-3.68,21.87-25,21.87s-25.98-14.88-25.98-21.87C141.55,80.56,141.55,43.77,141.55,43.77z"></path> <path class="st0" d="M413.96,100.76h-9.92v-35.9c0-5.4-3.43-14.16-15.69-14.16s-15.8,9.39-15.8,13.55v36.52h-9.56V63.99 c0-4.14,3.68-21.87,25-21.87c21.31,0,25.98,14.88,25.98,21.87V100.76z"></path> <path class="st0" d="M261.69,42.11c-9.25,0-14.76,4.2-18,8.98c-3.35-4.89-9.21-8.98-19.18-8.98c-19.04,0-22.32,17.73-22.32,21.87 v36.79h8.54V64.26c0-4.16,3.18-13.55,14.11-13.55c10.93,0,13.99,8.77,13.99,14.16v35.9h0.54h8.33h0.21V64.26 c0-4.16,3.16-13.55,14.11-13.55c10.93,0,13.99,8.77,13.99,14.16v35.9h8.86V63.99C284.88,56.99,280.73,42.11,261.69,42.11"></path> <path class="st0" d="M323.53,94.24c-12.7-1.16-19.25-10.81-19.25-22.8s8.65-20.6,20.52-20.6c17.17,0,18.83,17.21,18.83,17.21 l-31.34,0.08v7.48h41.01c0,0,1.52-33.51-29-33.46c-15.94,0.02-29.97,12.76-29.97,29.6s11.35,29.58,28.43,30.53 c19.75,1.08,27.23-9.91,27.23-9.91l-6.13-6.13C343.85,86.25,335.02,95.28,323.53,94.24"></path> <g> <path class="st1" d="M69.15,116.31h3.03l5.8,13.39h0.06l5.84-13.39h2.95v17.09H84.8v-14.34h-0.06l-6.13,14.34h-1.23l-6.13-14.34 h-0.04v14.34h-2.02v-17.09H69.15z"></path> <path class="st1" d="M100.99,131.34c-0.67,0.87-1.41,1.48-2.22,1.83s-1.73,0.52-2.79,0.52c-0.89,0-1.68-0.15-2.39-0.46 c-0.71-0.31-1.31-0.73-1.79-1.27c-0.48-0.54-0.87-1.16-1.14-1.89c-0.27-0.73-0.4-1.5-0.4-2.31c0-0.87,0.15-1.68,0.44-2.41 c0.29-0.73,0.69-1.37,1.21-1.89c0.52-0.52,1.12-0.93,1.83-1.21c0.71-0.29,1.48-0.44,2.31-0.44c0.79,0,1.52,0.13,2.18,0.4 c0.66,0.27,1.23,0.66,1.7,1.16c0.48,0.5,0.85,1.12,1.1,1.85c0.25,0.73,0.39,1.56,0.39,2.51v0.6h-9.13 c0.04,0.48,0.15,0.94,0.35,1.39c0.19,0.44,0.46,0.83,0.79,1.16s0.69,0.6,1.14,0.79c0.44,0.19,0.91,0.29,1.43,0.29 c0.83,0,1.52-0.15,2.08-0.44c0.56-0.29,1.08-0.71,1.52-1.27L100.99,131.34z M99.37,126.74c-0.04-0.96-0.35-1.73-0.94-2.31 c-0.6-0.58-1.41-0.87-2.47-0.87c-1.06,0-1.89,0.29-2.52,0.87c-0.64,0.58-1.02,1.35-1.16,2.31H99.37z"></path> <path class="st1" d="M113.88,131.38h-0.04c-0.35,0.64-0.91,1.19-1.68,1.64c-0.77,0.44-1.66,0.66-2.66,0.66 c-0.79,0-1.52-0.15-2.22-0.44c-0.69-0.31-1.29-0.71-1.79-1.25c-0.5-0.54-0.91-1.16-1.19-1.89c-0.29-0.73-0.44-1.5-0.44-2.37 c0-0.85,0.15-1.64,0.44-2.37c0.29-0.73,0.69-1.35,1.21-1.89c0.52-0.54,1.14-0.94,1.87-1.23s1.54-0.44,2.43-0.44 c0.83,0,1.58,0.17,2.25,0.5c0.67,0.33,1.29,0.81,1.79,1.43h0.04v-8.6h1.89v18.25h-1.89v-1.98H113.88z M113.88,127.74 c0-0.6-0.1-1.14-0.27-1.66c-0.19-0.5-0.46-0.94-0.81-1.33c-0.35-0.39-0.77-0.67-1.27-0.89c-0.48-0.21-1.04-0.33-1.66-0.33 s-1.16,0.12-1.66,0.33c-0.48,0.21-0.91,0.52-1.27,0.89c-0.35,0.39-0.62,0.83-0.81,1.33c-0.19,0.5-0.27,1.06-0.27,1.66 c0,0.6,0.1,1.16,0.27,1.66c0.19,0.5,0.46,0.94,0.81,1.33c0.35,0.39,0.77,0.67,1.27,0.89c0.48,0.21,1.04,0.33,1.66,0.33 s1.16-0.12,1.66-0.33c0.48-0.21,0.91-0.52,1.27-0.89c0.35-0.39,0.62-0.83,0.81-1.33C113.8,128.89,113.88,128.34,113.88,127.74z"></path> <path class="st1" d="M119.2,117.68c0-0.37,0.13-0.69,0.4-0.96c0.27-0.27,0.6-0.4,0.98-0.4c0.39,0,0.71,0.13,0.98,0.4 c0.27,0.27,0.4,0.6,0.4,0.96c0,0.4-0.13,0.73-0.39,0.98c-0.25,0.25-0.6,0.39-0.98,0.39c-0.4,0-0.73-0.13-0.98-0.39 C119.33,118.41,119.2,118.08,119.2,117.68z M119.62,122.09h1.89v11.29h-1.89C119.62,133.38,119.62,122.09,119.62,122.09z"></path> <path class="st1" d="M133.5,124.92c-0.4-0.48-0.83-0.83-1.31-1.04c-0.46-0.21-0.98-0.33-1.54-0.33c-0.64,0-1.18,0.12-1.66,0.33 c-0.48,0.21-0.89,0.52-1.19,0.91c-0.31,0.39-0.56,0.83-0.71,1.35c-0.15,0.5-0.25,1.04-0.25,1.64s0.1,1.12,0.27,1.64 c0.19,0.5,0.44,0.96,0.77,1.35c0.33,0.39,0.73,0.69,1.19,0.91s0.98,0.33,1.56,0.33c1.23,0,2.2-0.46,2.87-1.41l1.41,1.33 c-0.54,0.64-1.19,1.08-1.93,1.37c-0.73,0.29-1.52,0.44-2.33,0.44c-0.87,0-1.66-0.15-2.39-0.44s-1.35-0.69-1.85-1.23 c-0.5-0.54-0.91-1.16-1.18-1.89c-0.29-0.73-0.42-1.52-0.42-2.39c0-0.85,0.13-1.64,0.42-2.37c0.29-0.73,0.67-1.35,1.19-1.89 c0.52-0.54,1.14-0.94,1.85-1.23c0.71-0.29,1.5-0.44,2.37-0.44c0.83,0,1.64,0.15,2.37,0.44c0.73,0.29,1.41,0.73,1.97,1.35 L133.5,124.92z"></path> <path class="st1" d="M137.14,123.54c0.58-0.6,1.27-1.04,2.06-1.31c0.79-0.29,1.6-0.42,2.43-0.42c1.68,0,2.87,0.4,3.62,1.18 c0.75,0.77,1.12,1.98,1.12,3.6v4.86c0,0.33,0.02,0.66,0.06,1c0.04,0.35,0.08,0.66,0.12,0.96h-1.81c-0.06-0.25-0.1-0.54-0.12-0.85 c0-0.31-0.02-0.6-0.02-0.83h-0.04c-0.37,0.58-0.87,1.06-1.48,1.43c-0.62,0.37-1.37,0.56-2.24,0.56c-0.58,0-1.12-0.08-1.64-0.21 c-0.5-0.13-0.94-0.37-1.33-0.64c-0.39-0.29-0.67-0.64-0.91-1.04c-0.23-0.42-0.35-0.91-0.35-1.45c0-0.93,0.23-1.66,0.73-2.2 c0.48-0.54,1.08-0.93,1.79-1.18s1.48-0.42,2.31-0.48c0.83-0.06,1.58-0.1,2.27-0.1h0.73v-0.35c0-0.83-0.25-1.45-0.73-1.85 c-0.48-0.42-1.18-0.64-2.06-0.64c-0.62,0-1.21,0.1-1.79,0.31c-0.6,0.19-1.1,0.52-1.56,0.93L137.14,123.54z M142.59,127.97 c-1.21,0-2.16,0.17-2.87,0.5c-0.71,0.35-1.06,0.89-1.06,1.66c0,0.71,0.23,1.21,0.71,1.5s1.06,0.44,1.77,0.44 c0.54,0,1.02-0.1,1.45-0.27c0.42-0.17,0.75-0.42,1.02-0.73c0.27-0.31,0.48-0.66,0.64-1.08c0.15-0.42,0.23-0.85,0.23-1.31v-0.73 h-1.89V127.97z"></path> <path class="st1" d="M150.15,115.13h1.89v18.25h-1.89V115.13z"></path> <path class="st1" d="M163.21,116.31h4.37c0.83,0,1.64,0.04,2.45,0.15c0.81,0.1,1.54,0.31,2.18,0.64c0.64,0.33,1.18,0.79,1.56,1.41 c0.4,0.62,0.6,1.46,0.6,2.52c0,1.25-0.39,2.27-1.14,3.04c-0.75,0.77-1.81,1.27-3.14,1.46l4.86,7.86h-2.49l-4.64-7.67h-2.6v7.67 h-2.02v-17.09H163.21z M165.24,123.83h1.81c0.56,0,1.16-0.02,1.75-0.06c0.6-0.04,1.16-0.13,1.66-0.31c0.5-0.17,0.93-0.46,1.25-0.83 c0.33-0.39,0.5-0.93,0.5-1.64c0-0.62-0.12-1.1-0.37-1.46c-0.25-0.37-0.56-0.66-0.96-0.87s-0.83-0.33-1.33-0.4 c-0.48-0.06-0.98-0.1-1.48-0.1h-2.85v5.67H165.24z"></path> <path class="st1" d="M187.9,131.34c-0.67,0.87-1.41,1.48-2.22,1.83s-1.73,0.52-2.79,0.52c-0.89,0-1.68-0.15-2.39-0.46 c-0.71-0.31-1.31-0.73-1.79-1.27c-0.48-0.54-0.87-1.16-1.14-1.89c-0.27-0.73-0.4-1.5-0.4-2.31c0-0.87,0.15-1.68,0.44-2.41 c0.29-0.73,0.69-1.37,1.21-1.89c0.52-0.52,1.12-0.93,1.83-1.21s1.48-0.44,2.31-0.44c0.79,0,1.5,0.13,2.18,0.4 c0.67,0.27,1.23,0.66,1.7,1.16c0.48,0.5,0.85,1.12,1.1,1.85c0.25,0.73,0.39,1.56,0.39,2.51v0.6h-9.13 c0.04,0.48,0.15,0.94,0.35,1.39c0.19,0.44,0.46,0.83,0.79,1.16c0.33,0.33,0.69,0.6,1.14,0.79c0.44,0.19,0.91,0.29,1.43,0.29 c0.83,0,1.52-0.15,2.08-0.44s1.08-0.71,1.52-1.27L187.9,131.34z M186.28,126.74c-0.04-0.96-0.35-1.73-0.94-2.31 c-0.6-0.58-1.43-0.87-2.47-0.87c-1.04,0-1.89,0.29-2.54,0.87s-1.02,1.35-1.16,2.31H186.28z"></path> <path class="st1" d="M196.55,133.38h-2.08l-4.61-11.29h2.2l3.53,8.86h0.04l3.35-8.86h2.02L196.55,133.38z"></path> <path class="st1" d="M213.32,131.34c-0.67,0.87-1.41,1.48-2.22,1.83c-0.81,0.35-1.73,0.52-2.79,0.52c-0.89,0-1.68-0.15-2.39-0.46 c-0.71-0.31-1.31-0.73-1.79-1.27c-0.48-0.54-0.87-1.16-1.14-1.89c-0.27-0.73-0.4-1.5-0.4-2.31c0-0.87,0.15-1.68,0.44-2.41 c0.29-0.73,0.69-1.37,1.21-1.89c0.52-0.52,1.12-0.93,1.83-1.21s1.48-0.44,2.31-0.44c0.79,0,1.5,0.13,2.18,0.4 c0.67,0.27,1.23,0.66,1.7,1.16c0.48,0.5,0.85,1.12,1.1,1.85c0.25,0.73,0.39,1.56,0.39,2.51v0.6h-9.13 c0.04,0.48,0.15,0.94,0.35,1.39c0.19,0.44,0.46,0.83,0.79,1.16s0.69,0.6,1.14,0.79c0.44,0.19,0.91,0.29,1.43,0.29 c0.83,0,1.52-0.15,2.08-0.44c0.56-0.29,1.08-0.71,1.52-1.27L213.32,131.34z M211.7,126.74c-0.04-0.96-0.35-1.73-0.94-2.31 c-0.6-0.58-1.43-0.87-2.47-0.87c-1.04,0-1.89,0.29-2.54,0.87s-1.02,1.35-1.16,2.31H211.7z"></path> <path class="st1" d="M216.85,124.77c0-0.52-0.02-1-0.04-1.45c-0.04-0.44-0.06-0.87-0.06-1.23h1.79c0,0.31,0,0.62,0.02,0.93 c0.02,0.31,0.02,0.62,0.02,0.94h0.06c0.13-0.27,0.31-0.54,0.54-0.79s0.52-0.48,0.83-0.69c0.31-0.21,0.67-0.37,1.08-0.48 c0.4-0.12,0.83-0.17,1.31-0.17c0.73,0,1.39,0.12,1.93,0.35c0.54,0.23,0.98,0.54,1.35,0.94c0.35,0.4,0.62,0.89,0.79,1.46 c0.17,0.58,0.25,1.19,0.25,1.87v6.98h-1.89v-6.78c0-0.94-0.21-1.7-0.64-2.25c-0.42-0.54-1.08-0.83-1.95-0.83 c-0.62,0-1.14,0.1-1.58,0.31s-0.81,0.5-1.08,0.89c-0.29,0.39-0.48,0.85-0.64,1.37c-0.13,0.54-0.21,1.12-0.21,1.75v5.51h-1.89 C216.85,133.38,216.85,124.77,216.85,124.77z"></path> <path class="st1" d="M240.3,130.71c0,0.52,0.02,1,0.06,1.45c0.04,0.44,0.06,0.87,0.06,1.23h-1.79c0-0.31,0-0.62-0.02-0.93 s-0.02-0.62-0.02-0.94h-0.06c-0.13,0.27-0.31,0.54-0.54,0.79c-0.23,0.25-0.5,0.48-0.83,0.69c-0.33,0.21-0.69,0.37-1.08,0.48 c-0.4,0.12-0.83,0.17-1.31,0.17c-0.73,0-1.39-0.12-1.93-0.35c-0.54-0.23-0.98-0.54-1.35-0.94c-0.37-0.4-0.62-0.89-0.79-1.46 c-0.17-0.58-0.25-1.19-0.25-1.87v-6.98h1.89v6.78c0,0.94,0.21,1.7,0.64,2.25c0.42,0.54,1.08,0.83,1.97,0.83 c0.62,0,1.14-0.1,1.58-0.31s0.81-0.5,1.08-0.89s0.48-0.85,0.64-1.37c0.13-0.54,0.21-1.12,0.21-1.77v-5.51h1.89v8.63H240.3z"></path> <path class="st1" d="M254.16,131.34c-0.67,0.87-1.41,1.48-2.22,1.83c-0.81,0.35-1.73,0.52-2.79,0.52c-0.89,0-1.68-0.15-2.39-0.46 c-0.71-0.31-1.31-0.73-1.79-1.27c-0.48-0.54-0.87-1.16-1.14-1.89c-0.27-0.73-0.4-1.5-0.4-2.31c0-0.87,0.15-1.68,0.44-2.41 c0.29-0.73,0.69-1.37,1.21-1.89c0.52-0.52,1.14-0.93,1.83-1.21c0.69-0.29,1.48-0.44,2.31-0.44c0.79,0,1.5,0.13,2.18,0.4 c0.67,0.27,1.23,0.66,1.7,1.16c0.48,0.5,0.85,1.12,1.1,1.85c0.25,0.73,0.39,1.56,0.39,2.51v0.6h-9.13 c0.04,0.48,0.15,0.94,0.35,1.39c0.19,0.44,0.46,0.83,0.79,1.16c0.33,0.33,0.69,0.6,1.14,0.79c0.44,0.19,0.91,0.29,1.43,0.29 c0.83,0,1.52-0.15,2.08-0.44c0.56-0.29,1.08-0.71,1.52-1.27L254.16,131.34z M252.54,126.74c-0.04-0.96-0.35-1.73-0.94-2.31 c-0.6-0.58-1.43-0.87-2.47-0.87c-1.04,0-1.89,0.29-2.54,0.87s-1.02,1.35-1.16,2.31H252.54z"></path> <path class="st1" d="M273,119.32c-0.33-0.54-0.79-0.94-1.35-1.19c-0.56-0.25-1.16-0.37-1.77-0.37c-0.44,0-0.89,0.06-1.33,0.17 s-0.83,0.29-1.18,0.5c-0.35,0.23-0.62,0.52-0.83,0.89c-0.21,0.37-0.31,0.81-0.31,1.31c0,0.39,0.06,0.73,0.17,1.02 c0.12,0.29,0.33,0.56,0.6,0.81c0.27,0.23,0.64,0.46,1.12,0.67c0.48,0.21,1.04,0.42,1.72,0.64c0.66,0.21,1.29,0.42,1.93,0.67 c0.62,0.23,1.16,0.54,1.64,0.93c0.48,0.37,0.85,0.83,1.14,1.39c0.29,0.56,0.42,1.25,0.42,2.08c0,0.85-0.17,1.6-0.5,2.22 c-0.35,0.64-0.79,1.14-1.35,1.56s-1.19,0.71-1.93,0.93c-0.73,0.19-1.46,0.31-2.25,0.31c-0.5,0-1-0.04-1.5-0.13 c-0.5-0.1-0.98-0.23-1.45-0.4c-0.46-0.19-0.89-0.42-1.29-0.73c-0.4-0.29-0.75-0.66-1.04-1.1l1.73-1.43 c0.37,0.64,0.89,1.1,1.54,1.43c0.66,0.33,1.37,0.48,2.1,0.48c0.44,0,0.87-0.06,1.31-0.19c0.44-0.13,0.85-0.33,1.19-0.56 c0.35-0.25,0.64-0.56,0.87-0.93c0.23-0.37,0.35-0.79,0.35-1.27c0-0.54-0.1-0.96-0.27-1.29c-0.17-0.33-0.44-0.62-0.83-0.85 c-0.37-0.25-0.83-0.46-1.41-0.66c-0.56-0.19-1.21-0.42-1.98-0.67c-0.62-0.19-1.18-0.4-1.7-0.66c-0.52-0.25-0.96-0.56-1.35-0.93 s-0.67-0.79-0.89-1.31c-0.21-0.5-0.33-1.12-0.33-1.81c0-0.83,0.15-1.54,0.48-2.16s0.75-1.12,1.31-1.54s1.18-0.71,1.85-0.93 c0.69-0.21,1.41-0.31,2.18-0.31c0.96,0,1.85,0.15,2.64,0.44c0.79,0.29,1.5,0.81,2.14,1.56L273,119.32z"></path> <path class="st1" d="M277.49,127.74c0-0.89,0.15-1.7,0.46-2.41c0.31-0.73,0.73-1.35,1.25-1.87s1.18-0.93,1.91-1.21 s1.54-0.44,2.41-0.44s1.68,0.15,2.41,0.44s1.37,0.69,1.91,1.21c0.54,0.52,0.94,1.16,1.25,1.87c0.31,0.73,0.46,1.52,0.46,2.41 c0,0.89-0.15,1.7-0.46,2.41c-0.31,0.73-0.73,1.35-1.25,1.87c-0.52,0.52-1.18,0.93-1.91,1.21c-0.73,0.29-1.54,0.44-2.41,0.44 s-1.68-0.15-2.41-0.44s-1.37-0.69-1.91-1.21s-0.94-1.14-1.25-1.87C277.65,129.43,277.49,128.62,277.49,127.74z M279.52,127.74 c0,0.6,0.1,1.16,0.27,1.66s0.46,0.94,0.81,1.33c0.35,0.39,0.77,0.67,1.27,0.89c0.48,0.21,1.04,0.33,1.66,0.33 c0.62,0,1.16-0.12,1.66-0.33c0.48-0.21,0.91-0.52,1.27-0.89c0.35-0.39,0.62-0.83,0.81-1.33c0.19-0.5,0.27-1.06,0.27-1.66 c0-0.6-0.1-1.14-0.27-1.66c-0.19-0.5-0.46-0.94-0.81-1.33c-0.35-0.39-0.77-0.67-1.27-0.89c-0.48-0.21-1.04-0.33-1.66-0.33 c-0.62,0-1.16,0.12-1.66,0.33c-0.48,0.21-0.91,0.52-1.27,0.89c-0.37,0.37-0.62,0.83-0.81,1.33 C279.61,126.6,279.52,127.14,279.52,127.74z"></path> <path class="st1" d="M292.85,115.13h1.89v18.25h-1.89V115.13z"></path> <path class="st1" d="M308.52,130.71c0,0.52,0.02,1,0.06,1.45s0.06,0.87,0.06,1.23h-1.79c0-0.31,0-0.62-0.02-0.93 s-0.02-0.62-0.02-0.94h-0.06c-0.13,0.27-0.31,0.54-0.54,0.79c-0.23,0.25-0.5,0.48-0.83,0.69c-0.33,0.21-0.69,0.37-1.08,0.48 c-0.4,0.12-0.83,0.17-1.31,0.17c-0.73,0-1.39-0.12-1.93-0.35s-0.98-0.54-1.35-0.94c-0.37-0.4-0.62-0.89-0.79-1.46 s-0.25-1.19-0.25-1.87v-6.98h1.89v6.78c0,0.94,0.21,1.7,0.64,2.25c0.42,0.54,1.08,0.83,1.97,0.83c0.62,0,1.14-0.1,1.58-0.31 s0.81-0.5,1.08-0.89s0.48-0.85,0.64-1.37c0.13-0.54,0.21-1.12,0.21-1.77v-5.51h1.89v8.63H308.52z"></path> <path class="st1" d="M318.47,123.69h-3.33v5.65c0,0.37,0,0.71,0.02,1.02c0.02,0.31,0.08,0.58,0.19,0.83 c0.12,0.23,0.29,0.42,0.5,0.56c0.23,0.13,0.54,0.21,0.96,0.21c0.27,0,0.56-0.04,0.85-0.1s0.56-0.15,0.83-0.29l0.08,1.72 c-0.33,0.15-0.67,0.25-1.08,0.31c-0.4,0.06-0.77,0.1-1.12,0.1c-0.67,0-1.21-0.1-1.62-0.27c-0.4-0.17-0.71-0.42-0.94-0.75 c-0.23-0.33-0.37-0.71-0.44-1.19c-0.08-0.48-0.12-1-0.12-1.58v-6.21h-2.47v-1.6h2.47v-3.22h1.89v3.22h3.33V123.69L318.47,123.69z"></path> <path class="st1" d="M320.74,117.68c0-0.37,0.13-0.69,0.4-0.96c0.27-0.27,0.6-0.4,0.98-0.4c0.39,0,0.71,0.13,0.98,0.4 c0.27,0.27,0.4,0.6,0.4,0.96c0,0.4-0.13,0.73-0.39,0.98c-0.25,0.25-0.58,0.39-0.98,0.39c-0.4,0-0.73-0.13-0.98-0.39 C320.87,118.41,320.74,118.08,320.74,117.68z M321.16,122.09h1.89v11.29h-1.89V122.09z"></path> <path class="st1" d="M326.35,127.74c0-0.89,0.15-1.7,0.46-2.41c0.31-0.73,0.73-1.35,1.25-1.87c0.52-0.52,1.18-0.93,1.91-1.21 s1.54-0.44,2.41-0.44s1.68,0.15,2.41,0.44s1.37,0.69,1.91,1.21c0.54,0.52,0.94,1.16,1.25,1.87c0.31,0.73,0.46,1.52,0.46,2.41 c0,0.89-0.15,1.7-0.46,2.41c-0.31,0.73-0.73,1.35-1.25,1.87c-0.52,0.52-1.18,0.93-1.91,1.21c-0.73,0.29-1.54,0.44-2.41,0.44 s-1.68-0.15-2.41-0.44s-1.37-0.69-1.91-1.21s-0.94-1.14-1.25-1.87C326.48,129.43,326.35,128.62,326.35,127.74z M328.37,127.74 c0,0.6,0.1,1.16,0.27,1.66s0.46,0.94,0.81,1.33c0.35,0.39,0.77,0.67,1.27,0.89c0.48,0.21,1.04,0.33,1.66,0.33 c0.62,0,1.16-0.12,1.66-0.33c0.48-0.21,0.91-0.52,1.27-0.89c0.35-0.39,0.62-0.83,0.81-1.33c0.19-0.5,0.27-1.06,0.27-1.66 c0-0.6-0.1-1.14-0.27-1.66c-0.19-0.5-0.46-0.94-0.81-1.33c-0.35-0.39-0.77-0.67-1.27-0.89c-0.48-0.21-1.04-0.33-1.66-0.33 c-0.62,0-1.16,0.12-1.66,0.33c-0.48,0.21-0.91,0.52-1.27,0.89c-0.37,0.37-0.62,0.83-0.81,1.33 C328.47,126.6,328.37,127.14,328.37,127.74z"></path> <path class="st1" d="M341.51,124.77c0-0.52-0.02-1-0.04-1.45c-0.04-0.44-0.06-0.87-0.06-1.23h1.79c0,0.31,0,0.62,0.02,0.93 c0.02,0.31,0.02,0.62,0.02,0.94h0.06c0.13-0.27,0.31-0.54,0.54-0.79s0.52-0.48,0.83-0.69s0.67-0.37,1.08-0.48 c0.4-0.12,0.83-0.17,1.31-0.17c0.73,0,1.39,0.12,1.93,0.35c0.54,0.23,0.98,0.54,1.35,0.94c0.35,0.4,0.62,0.89,0.79,1.46 c0.17,0.58,0.25,1.19,0.25,1.87v6.98h-1.89v-6.78c0-0.94-0.21-1.7-0.64-2.25c-0.42-0.54-1.08-0.83-1.95-0.83 c-0.62,0-1.14,0.1-1.58,0.31c-0.44,0.21-0.81,0.5-1.08,0.89c-0.29,0.39-0.48,0.85-0.64,1.37c-0.13,0.54-0.21,1.12-0.21,1.75v5.51 h-1.89L341.51,124.77L341.51,124.77z"></path> <path class="st1" d="M355.39,130.42c0.37,0.46,0.77,0.83,1.21,1.12c0.44,0.27,1,0.4,1.68,0.4c0.29,0,0.58-0.04,0.89-0.1 c0.31-0.06,0.56-0.17,0.81-0.31c0.25-0.13,0.44-0.33,0.58-0.54c0.15-0.21,0.21-0.48,0.21-0.79s-0.08-0.56-0.21-0.75 c-0.13-0.19-0.33-0.37-0.54-0.5c-0.23-0.13-0.48-0.25-0.77-0.33s-0.58-0.15-0.89-0.21c-0.54-0.12-1.04-0.23-1.52-0.39 c-0.48-0.15-0.91-0.33-1.27-0.56c-0.37-0.23-0.66-0.54-0.87-0.91c-0.21-0.37-0.33-0.85-0.33-1.43c0-0.54,0.12-1.02,0.37-1.45 c0.23-0.42,0.56-0.77,0.96-1.04c0.4-0.27,0.85-0.48,1.35-0.64c0.5-0.15,1.02-0.21,1.54-0.21c0.81,0,1.54,0.15,2.24,0.48 c0.69,0.33,1.21,0.85,1.6,1.56l-1.56,1.04c-0.25-0.4-0.56-0.73-0.96-0.98c-0.4-0.25-0.87-0.37-1.45-0.37 c-0.25,0-0.52,0.04-0.79,0.1c-0.27,0.06-0.5,0.15-0.71,0.29c-0.21,0.13-0.39,0.29-0.52,0.5c-0.13,0.19-0.21,0.42-0.21,0.69 c0,0.23,0.08,0.44,0.23,0.62s0.37,0.33,0.64,0.44c0.27,0.13,0.58,0.25,0.93,0.35s0.71,0.17,1.08,0.23c0.5,0.1,0.96,0.23,1.43,0.37 c0.44,0.15,0.85,0.37,1.18,0.62c0.33,0.25,0.6,0.58,0.79,0.96s0.29,0.87,0.29,1.43c0,0.64-0.13,1.19-0.39,1.64 c-0.25,0.44-0.6,0.81-1.02,1.1s-0.91,0.48-1.45,0.62s-1.1,0.19-1.66,0.19c-0.96,0-1.79-0.15-2.51-0.44 c-0.69-0.31-1.33-0.85-1.89-1.66L355.39,130.42z"></path> </g> <polygon class="st1" points="448.78,23.54 431.4,23.54 431.4,6.15 421.4,6.15 421.4,23.54 404.03,23.54 404.03,33.54 421.4,33.54 421.4,50.9 431.4,50.9 431.4,33.54 448.78,33.54 "></polygon> </svg> 