<?xml version="1.0" encoding="UTF-8"?> <!-- Generator: Adobe Illustrator 23.1.1, SVG Export Plug-In . SVG Version: 6.00 Build 0) --> <svg xmlns="http://www.w3.org/2000/svg" xmlns:xlink="http://www.w3.org/1999/xlink" x="0px" y="0px" viewBox="0 0 298.51 116" style="enable-background:new 0 0 298.51 116;" xml:space="preserve"> <style type="text/css"> .st0{fill:#14613C;} .st1{fill:#939598;} .st2{fill:none;} </style> <g id="Layer_1"> <g> <path class="st0" d="M110.88,79.08c-1.1-0.64-1.83-1.43-2.21-2.38c-0.38-0.95-0.56-2.34-0.56-4.17V53.66h3.19 c3.46,0,6.08,0.34,7.85,1.03c1.77,0.69,3.15,2.02,4.17,4c1.01,1.98,1.52,4.72,1.52,8.21c0,4.38-0.78,7.67-2.33,9.86 c-1.55,2.19-3.88,3.29-6.99,3.29C113.52,80.04,111.98,79.72,110.88,79.08 M108.11,24.77c3.53,0,6.2,0.26,8.02,0.78 c1.81,0.52,3.28,1.68,4.39,3.48c1.11,1.8,1.67,4.25,1.67,7.36c0,4.15-0.88,7.07-2.65,8.75c-1.77,1.68-4.45,2.53-8.04,2.53h-3.38 V24.77z M107.57,18.99l-25.55,0.74v5.44c3.63,0,5.98,0.57,7.06,1.72c1.08,1.14,1.62,3.29,1.62,6.42v38.99 c0,3.24-0.57,5.4-1.72,6.5c-1.14,1.1-3.47,1.64-6.96,1.64v5.44h34.87c9.71,0,16.66-1.55,20.84-4.66 c4.18-3.11,6.28-7.36,6.28-12.75c0-4.81-1.63-8.7-4.9-11.7c-3.27-2.99-8.17-5.08-14.71-6.25c5.56-1.47,9.72-3.5,12.48-6.08 c2.76-2.58,4.14-5.74,4.14-9.46c0-4.94-2.09-8.84-6.28-11.7c-4.18-2.86-12.03-4.29-23.54-4.29H107.57z"></path> <path class="st0" d="M175.03,74.03c-2.75-4.53-4.12-11.91-4.12-22.14c0-9.48,1.37-16.4,4.12-20.74c2.75-4.35,6.9-6.52,12.46-6.52 c5.88,0,10.18,2.34,12.87,7.01c2.7,4.68,4.05,11.75,4.05,21.23c0,10.36-1.44,17.61-4.31,21.75c-2.88,4.14-7.14,6.2-12.8,6.2 C181.86,80.82,177.78,78.56,175.03,74.03 M168.97,22.3c-5.71,2.73-10.23,6.94-13.56,12.63c-3.33,5.69-5,11.53-5,17.51 c0,5.46,1.27,10.98,3.83,16.55c2.55,5.57,6.82,10.01,12.82,13.31c6,3.3,12.9,4.95,20.72,4.95c11.41,0,20.43-3.35,27.07-10.05 c6.64-6.7,9.96-14.71,9.96-24.03c0-9.81-3.33-18.09-9.98-24.84c-6.65-6.75-15.83-10.13-27.54-10.13 C180.78,18.2,174.68,19.57,168.97,22.3"></path> <path class="st0" d="M251.33,42.43l8.29,19.86h-16.13L251.33,42.43z M254.67,18.2l-20.45,51.54c-2.84,7.13-6.36,10.69-10.54,10.69 v5.44h21.97v-5.44c-2.45,0-4.22-0.32-5.3-0.96c-1.08-0.64-1.62-1.76-1.62-3.36c0-0.95,0.46-2.58,1.37-4.9l1.28-3.29h20.45 l1.91,4.86l0.64,1.52c0.59,1.27,0.88,2.3,0.88,3.09c0,0.88-0.36,1.61-1.08,2.18c-0.72,0.57-2.57,0.86-5.54,0.86v5.44h33v-5.44 c-1.54,0-3.14-0.51-4.81-1.54c-1.67-1.03-3.53-4.09-5.59-9.2L260.41,18.2H254.67z"></path> <path class="st0" d="M6.47,33.34c0,0,5.12-2.36,10.5,1.45c5.08,3.59,3.56,9.03,3.56,9.03s-5.49,3.21-10.56-0.76 C5.36,39.46,6.47,33.34,6.47,33.34"></path> <path class="st0" d="M20.72,13.13c0,0,5.6-0.6,9.49,4.73c3.66,5.03,0.48,9.7,0.48,9.7s-6.23,1.28-9.76-4.1 C17.72,18.57,20.72,13.13,20.72,13.13"></path> <path class="st0" d="M48.36,5.55c0,0,4.81,2.93,4.66,9.53c-0.15,6.22-5.52,7.99-5.52,7.99s-5.73-2.77-5.26-9.19 C42.67,8.04,48.36,5.55,48.36,5.55"></path> <path class="st0" d="M73.23,13.03c0,0,2.78,4.9-0.56,10.59c-3.15,5.36-8.71,4.3-8.71,4.3s-3.66-5.21-0.12-10.59 C67.05,12.44,73.23,13.03,73.23,13.03"></path> <path class="st0" d="M87.06,34.18c0,0,0.11,5.63-5.54,9.04c-5.33,3.21-9.7-0.37-9.7-0.37s-0.73-6.32,4.94-9.37 C81.9,30.72,87.06,34.18,87.06,34.18"></path> <path class="st1" d="M65.98,53.69c-0.49-0.02-1.01-0.04-1.53-0.04c-1.42,0-2.9,0.09-4.26,0.34c-7.69,1.42-10.1,5.27-10.1,5.27 s3.35,4.28,3.35,4.28c-0.2-0.32,1.41-2.99,1.89-3.61c3.19-4.14,8.65-4.55,13.5-4.17C67.45,55.13,66.49,54.25,65.98,53.69z"></path> <path class="st0" d="M41.41,96.17c0-2.28-1.49-3.53-4.21-3.53h-6.89l-1.7,16.08h7.15c3.44,0,5.58-1.87,5.58-4.88 c0-1.88-0.79-2.88-2.58-3.26l-0.32-0.07l0.31-0.1C39.97,100,41.41,98.95,41.41,96.17z M32.71,99.36l0.4-4h3.37 c1.09,0,1.73,0.63,1.73,1.69c0,1.66-1.05,2.41-2.08,2.41H32.7L32.71,99.36z M35.86,105.98H32l0.01-0.1l0.45-4.14h3.63 c1.42,0,2.2,0.68,2.2,1.92C38.29,105.18,37.45,105.98,35.86,105.98z"></path> <path class="st0" d="M44.01,108.18c0.52,0.58,1.31,0.87,2.34,0.87c1.82,0,3.08-1.03,3.67-1.64l0.03-0.03h0.13l0.01,0.07 c0.18,0.95,0.84,1.39,2.07,1.39c1.2,0,2.18-0.61,2.39-0.75l-0.17-1.74c-0.19,0.08-0.59,0.22-0.88,0.22c-0.2,0-0.34-0.05-0.43-0.15 c-0.11-0.12-0.15-0.32-0.12-0.64l0.85-7.98l-2.98,0.77l-0.72,6.82l-0.03,0.02c-0.45,0.4-1.36,1.07-2.45,1.07 c-0.51,0-0.87-0.13-1.12-0.41c-0.33-0.37-0.44-1.01-0.34-1.96l0.66-6.25l-2.96,0.5l-0.69,6.62 C43.15,106.42,43.39,107.49,44.01,108.18z"></path> <path class="st0" d="M65.98,105.5c0-2.02-1.73-2.53-3.67-2.91l-0.21-0.04c-1.01-0.19-1.87-0.35-1.87-1.18 c0-0.85,0.73-1.34,2.01-1.34c1.87,0,2.91,0.63,3.21,0.85l0.93-2.31c-0.3-0.17-1.72-0.88-4.07-0.88c-3.91,0-5.3,2.03-5.3,3.77 c0,2.24,1.97,2.64,3.55,2.96l0.27,0.05c1.07,0.21,1.91,0.37,1.91,1.19c0,0.71-0.7,1.15-1.83,1.15c-2.21,0-3.49-0.88-3.83-1.14 L56,107.71c0.28,0.23,1.78,1.35,4.84,1.35C64.06,109.05,65.98,107.72,65.98,105.5z"></path> <polygon class="st0" points="69.44,98.1 68.34,108.62 71.06,108.62 72.16,98.1 "></polygon> <path class="st0" d="M71.42,92.69c-1.11,0-1.92,0.77-1.92,1.82c0,0.88,0.6,1.45,1.52,1.45c1.11,0,1.89-0.75,1.89-1.82 C72.92,93.28,72.32,92.69,71.42,92.69z"></path> <path class="st0" d="M83.48,108.85c1.2,0,2.19-0.61,2.39-0.75l-0.15-1.74c-0.2,0.08-0.61,0.22-0.9,0.22 c-0.2,0-0.33-0.04-0.42-0.14c-0.11-0.12-0.14-0.31-0.11-0.65l0.42-4.04c0.15-1.43-0.09-2.5-0.7-3.19 c-0.52-0.58-1.31-0.87-2.34-0.87c-1.7,0-2.93,1.11-3.45,1.59l-0.23,0.21l0.17-1.68l-2.95,0.77l-1.07,10.13h2.89l0.76-7.2 l0.03-0.02c0.44-0.38,1.36-1.16,2.47-1.16c0.51,0,0.87,0.13,1.11,0.4c0.33,0.36,0.44,0.97,0.34,1.93l-0.37,3.58 c-0.1,1,0.02,1.65,0.39,2.06C82.08,108.66,82.65,108.85,83.48,108.85z"></path> <path class="st0" d="M93.61,97.69c-4.21,0-6.09,3.17-6.09,6.32c0,3.16,1.87,5.04,5,5.04c2.32,0,4.09-1.28,4.4-1.52l-0.64-1.78 c-0.33,0.24-1.5,0.97-3.28,0.97c-1.62,0-2.56-0.94-2.64-2.64l0-0.09h7.23c0.08-0.2,0.37-0.98,0.37-1.91 C97.96,100.57,97.05,97.69,93.61,97.69z M95.34,102.26l-0.03,0.24h-4.83l0.03-0.11c0.41-1.62,1.43-2.55,2.8-2.55 c0.66,0,1.21,0.23,1.59,0.66C95.28,100.95,95.44,101.57,95.34,102.26z"></path> <g> <path class="st0" d="M94.94,106.32c-0.15,0.05-0.31,0.1-0.49,0.14C94.62,106.41,94.79,106.37,94.94,106.32z"></path> <path class="st0" d="M97,107.58l-0.03,0.02c0,0,0,0-0.01,0.01C96.98,107.6,96.99,107.59,97,107.58z"></path> <path class="st0" d="M93.71,106.59c-0.22,0.03-0.45,0.04-0.69,0.04C93.26,106.63,93.49,106.62,93.71,106.59z"></path> <path class="st0" d="M96.32,105.61L96.32,105.61c-0.01,0.01-0.5,0.4-1.36,0.69c0.65-0.22,1.09-0.5,1.27-0.62L96.32,105.61 L96.32,105.61z"></path> <path class="st0" d="M94.35,106.48c-0.16,0.04-0.32,0.06-0.5,0.09C94.03,106.54,94.19,106.52,94.35,106.48z"></path> <path class="st0" d="M97.67,104.02c0.09-0.22,0.37-0.98,0.37-1.92C98.04,103.02,97.76,103.79,97.67,104.02z"></path> <path class="st0" d="M91.07,101.24c0.42-0.7,1.03-1.14,1.76-1.27C92.09,100.1,91.49,100.54,91.07,101.24z"></path> <path class="st0" d="M91.03,101.3c-0.06,0.1-0.11,0.21-0.16,0.32C90.92,101.51,90.97,101.4,91.03,101.3z"></path> <path class="st0" d="M90.8,101.77c-0.05,0.11-0.08,0.24-0.12,0.36C90.71,102.01,90.75,101.89,90.8,101.77z"></path> </g> <path class="st0" d="M105.49,102.59l-0.22-0.04c-1.01-0.19-1.87-0.35-1.87-1.18c0-0.85,0.73-1.34,2.01-1.34 c1.87,0,2.91,0.63,3.21,0.85l0.93-2.31c-0.3-0.17-1.72-0.88-4.07-0.88c-3.91,0-5.3,2.03-5.3,3.77c0,2.24,1.97,2.64,3.55,2.96 l0.27,0.05c1.07,0.21,1.91,0.37,1.91,1.19c0,0.71-0.7,1.15-1.83,1.15c-2.21,0-3.49-0.88-3.83-1.14l-1.08,2.03 c0.28,0.23,1.78,1.35,4.84,1.35c3.22,0,5.14-1.33,5.14-3.56C109.15,103.48,107.42,102.97,105.49,102.59z"></path> <path class="st0" d="M120.72,105.5c0-2.02-1.73-2.53-3.67-2.91l-0.21-0.04c-1.01-0.19-1.87-0.35-1.87-1.18 c0-0.85,0.73-1.34,2.01-1.34c1.87,0,2.91,0.63,3.21,0.85l0.93-2.31c-0.3-0.17-1.72-0.88-4.07-0.88c-3.91,0-5.3,2.03-5.3,3.77 c0,2.24,1.97,2.64,3.55,2.96l0.27,0.05c1.07,0.21,1.91,0.37,1.91,1.19c0,0.71-0.7,1.15-1.83,1.15c-2.21,0-3.49-0.88-3.83-1.14 l-1.08,2.03c0.28,0.23,1.78,1.35,4.84,1.35C118.8,109.05,120.72,107.72,120.72,105.5z"></path> <path class="st0" d="M137.07,92.33c-5.36,0-8.97,3.75-8.97,9.34c0,4.63,2.68,7.39,7.18,7.39c6.19,0,8.97-4.72,8.97-9.41 C144.25,95.13,141.5,92.33,137.07,92.33z M135.61,106.3c-2.77,0-4.36-1.78-4.36-4.89c0-3.79,2.22-6.33,5.52-6.33 c2.67,0,4.33,1.87,4.33,4.87C141.1,102.88,139.66,106.3,135.61,106.3z"></path> <polygon class="st0" points="158.83,98.02 155.97,106.19 154.89,98.02 152.22,98.02 149.45,106.17 148.34,98.02 145.16,98.02 147.53,108.71 150.98,108.71 153.15,102.03 153.95,108.71 157.39,108.71 161.98,98.02 "></polygon> <path class="st0" d="M171.95,108.85c1.2,0,2.19-0.61,2.39-0.75l-0.15-1.74c-0.2,0.08-0.61,0.22-0.9,0.22 c-0.2,0-0.33-0.04-0.42-0.14c-0.11-0.12-0.14-0.31-0.11-0.65l0.42-4.04c0.15-1.43-0.09-2.5-0.7-3.19 c-0.52-0.58-1.31-0.87-2.34-0.87c-1.7,0-2.93,1.11-3.45,1.59l-0.23,0.21l0.17-1.68l-2.95,0.77l-1.07,10.13h2.89l0.76-7.2 l0.03-0.02c0.44-0.38,1.36-1.16,2.47-1.16c0.51,0,0.87,0.13,1.11,0.4c0.33,0.36,0.44,0.97,0.34,1.93l-0.37,3.58 c-0.1,1,0.02,1.65,0.39,2.06C170.56,108.66,171.12,108.85,171.95,108.85z"></path> <path class="st0" d="M181.62,97.69c-4.21,0-6.09,3.17-6.09,6.32c0,3.16,1.87,5.04,5,5.04c2.32,0,4.09-1.28,4.4-1.52l-0.64-1.78 c-0.33,0.24-1.5,0.97-3.28,0.97c-1.62,0-2.56-0.94-2.64-2.64l0-0.09h7.23c0.08-0.2,0.36-0.98,0.36-1.91 C185.96,100.57,185.05,97.69,181.62,97.69z M183.35,102.26l-0.03,0.24h-4.83l0.03-0.11c0.41-1.62,1.43-2.55,2.8-2.55 c0.66,0,1.21,0.23,1.59,0.66C183.29,100.95,183.45,101.57,183.35,102.26z"></path> <path class="st0" d="M190.92,102.12c0.63-0.77,1.6-1.8,2.76-1.8c0.8,0,1.23,0.18,1.4,0.28l1.07-2.51c-0.14-0.11-0.61-0.4-1.52-0.4 c-1.62,0-2.84,1.54-3.3,2.12l-0.21,0.26l0.23-2.26l-2.96,0.77l-1.07,10.13h2.89l0.69-6.56L190.92,102.12z"></path> <path class="st0" d="M206.14,105.5c0-2.02-1.74-2.53-3.67-2.91l-0.22-0.04c-1.01-0.19-1.87-0.35-1.87-1.18 c0-0.85,0.73-1.34,2.01-1.34c1.87,0,2.91,0.63,3.21,0.85l0.93-2.31c-0.3-0.17-1.72-0.88-4.07-0.88c-3.91,0-5.3,2.03-5.3,3.77 c0,2.24,1.97,2.64,3.55,2.96l0.27,0.05c1.07,0.21,1.91,0.37,1.91,1.19c0,0.71-0.7,1.15-1.83,1.15c-2.21,0-3.5-0.88-3.83-1.14 l-1.08,2.03c0.28,0.23,1.78,1.35,4.83,1.35C204.22,109.05,206.14,107.72,206.14,105.5z"></path> <path class="st0" d="M221.89,105.11l0.79,3.6h3.28l-4.02-16.08h-3.48l-7.42,16.08h3.27l1.51-3.6H221.89z M219.83,95.88l1.45,6.69 h-4.28L219.83,95.88z"></path> <path class="st0" d="M228.2,108.27c0.35,0.39,0.94,0.58,1.8,0.58c1.45,0,2.58-0.59,2.81-0.73l-0.15-1.79 c-0.24,0.08-0.85,0.25-1.27,0.25c-0.25,0-0.42-0.06-0.53-0.17c-0.12-0.14-0.16-0.35-0.12-0.69l1.5-14.22l-2.98,0.77l-1.46,13.96 C227.7,107.21,227.82,107.86,228.2,108.27z"></path> <path class="st0" d="M234.76,108.27c0.35,0.39,0.94,0.58,1.8,0.58c1.45,0,2.58-0.59,2.81-0.73l-0.15-1.79 c-0.24,0.08-0.85,0.25-1.27,0.25c-0.25,0-0.42-0.06-0.53-0.17c-0.12-0.14-0.16-0.35-0.12-0.69l1.5-14.22l-2.98,0.77l-1.46,13.96 C234.27,107.21,234.39,107.86,234.76,108.27z"></path> <polygon class="st0" points="242.34,98.1 241.24,108.62 243.96,108.62 245.06,98.1 "></polygon> <path class="st0" d="M244.32,92.69c-1.11,0-1.92,0.77-1.92,1.82c0,0.88,0.6,1.45,1.52,1.45c1.11,0,1.89-0.75,1.89-1.82 C245.82,93.28,245.22,92.69,244.32,92.69z"></path> <path class="st0" d="M246.59,106.42c0,1.67,1.08,2.63,2.95,2.63c1.36,0,2.61-0.54,3.63-1.55l0.03-0.03h0.13l0.01,0.07 c0.19,0.86,0.88,1.3,2.05,1.3c1.2,0,2.18-0.61,2.39-0.75l-0.17-1.74c-0.19,0.07-0.6,0.22-0.85,0.22c-0.22,0-0.36-0.05-0.46-0.15 c-0.11-0.12-0.15-0.32-0.12-0.64l0.46-4.39c0.12-1.11-0.1-1.98-0.65-2.59c-0.67-0.74-1.84-1.12-3.48-1.12 c-2.3,0-4.08,0.57-4.43,0.69l0.24,2.3c0.38-0.15,1.7-0.61,3.15-0.61c0.99,0,1.58,0.17,1.91,0.54c0.28,0.31,0.38,0.76,0.31,1.42 l-0.13,1.19l-0.1-0.03c-0.25-0.07-0.75-0.14-1.32-0.14C248.51,103.05,246.59,104.22,246.59,106.42z M253.42,104.61l-0.15,1.41 l-0.03,0.02c-0.48,0.4-1.29,0.88-2.4,0.88c-0.82,0-1.32-0.38-1.32-1.02c0-0.96,0.85-1.43,2.59-1.43c0.63,0,0.96,0.06,1.19,0.11 L253.42,104.61z"></path> <path class="st0" d="M268.49,108.85c1.2,0,2.19-0.61,2.39-0.75l-0.15-1.74c-0.2,0.08-0.61,0.22-0.9,0.22 c-0.2,0-0.33-0.04-0.42-0.14c-0.11-0.12-0.14-0.31-0.11-0.65l0.42-4.04c0.15-1.43-0.09-2.5-0.7-3.19 c-0.52-0.58-1.31-0.87-2.34-0.87c-1.7,0-2.93,1.11-3.45,1.59l-0.23,0.21l0.17-1.68l-2.95,0.77l-1.08,10.13h2.89l0.76-7.2 l0.03-0.02c0.44-0.38,1.36-1.16,2.47-1.16c0.51,0,0.87,0.13,1.11,0.4c0.33,0.36,0.44,0.97,0.34,1.93l-0.37,3.58 c-0.1,1,0.02,1.65,0.39,2.06C267.09,108.66,267.66,108.85,268.49,108.85z"></path> <path class="st0" d="M278.37,97.69c-4.27,0-6.18,3.2-6.18,6.37c0,3.08,1.85,5,4.83,5c2.66,0,4.33-1.29,4.61-1.52l-0.71-2.2 c-0.33,0.31-1.44,1.2-3.21,1.2c-1.55,0-2.55-1.12-2.55-2.85c0-1.73,1-3.48,3.24-3.48c1.43,0,2.21,0.52,2.46,0.72l1.21-2.26 C281.84,98.48,280.66,97.69,278.37,97.69z"></path> <path class="st0" d="M289.21,97.69c-4.21,0-6.09,3.17-6.09,6.32c0,3.16,1.87,5.04,5,5.04c2.31,0,4.09-1.28,4.4-1.52l-0.64-1.78 c-0.33,0.24-1.5,0.97-3.28,0.97c-1.62,0-2.56-0.94-2.64-2.64l0-0.09h7.23c0.08-0.2,0.37-0.98,0.37-1.91 C293.56,100.57,292.65,97.69,289.21,97.69z M290.94,102.26l-0.03,0.24h-4.83l0.03-0.11c0.41-1.62,1.43-2.55,2.8-2.55 c0.66,0,1.21,0.23,1.59,0.66C290.88,100.95,291.04,101.57,290.94,102.26z"></path> <path class="st1" d="M46.45,63.94c0,0,0.74,3.96,0.25,7.24c-0.51,3.49-3.15,7.92-7.06,10.74c-3.42,2.46-5.85,3.59-6.4,3.83 c-0.08,0.03-0.12,0.05-0.12,0.05h0.24h6.4c0,0,4.6-2.89,6.64-5.45c2.04-2.55,3.23-6.3,3.23-6.3s0.07,4.11-2.17,6.95 c-2.25,2.87-4.9,4.63-5.17,4.81l4.7,0.01l2.09-1.82l2.15,1.82h6.35l-6.11-5.16l0.76-0.91l7.67,6.1l4.93,0.01 c0,0-3.72-2.34-6.97-5.01c-3.24-2.67-4.01-3.82-4.01-3.82c-0.05-0.07,0.11-0.51,0.12-0.59c0.11-0.54,0.19-1.08,0.26-1.62 c0.16-1.18,0.19-2.36,0.11-3.55c-0.16-2.57-0.83-5.17-2.02-7.46c-0.77-1.48-1.76-2.63-2.81-3.93L46.45,63.94z"></path> <path class="st2" d="M61.06,40.28c-0.05,0.92-0.18,1.86-0.37,2.78c0.32,0.65,0.59,1.03,0.59,1.03s0.48,0.08,1.22,0.07 c0.25-1.26,0.4-2.55,0.43-3.88H61.06z"></path> <path class="st0" d="M70.44,29.13c0,0-6.19-0.54-9.36,4.37c-2.56,3.96-1.26,7.78-0.39,9.56c0.32,0.65,0.59,1.03,0.59,1.03 s0.48,0.08,1.22,0.07c1.81-0.03,5.24-0.62,7.45-4.44C73.25,34.01,70.44,29.13,70.44,29.13z"></path> <path class="st1" d="M30.61,52.84c7.56,0.72,11.41,5.28,11.41,5.28s1.64-1.6,2.32-3.55c0,0-8.02-4.4-9.49-5.51 c-1.47-1.11-2.87-2.61-3.16-4.59c-0.1-0.65-0.16-1.54-0.19-2.46c-0.25,0.48-0.46,0.76-0.46,0.76s-0.81,0.13-2,0.04 c-0.08,2.78,0.99,5.1,2.72,7.24c0,0-3.16,0.13-6.62,0.72c-0.25,0.04-0.49,0.09-0.72,0.14c-0.08,0.02-0.15,0.03-0.22,0.05 c0.45,0.77,0.74,1.5,0.9,2.09C26.64,52.78,28.53,52.64,30.61,52.84z"></path> <path class="st1" d="M66.6,50.3c-2.04-0.28-4.43-0.04-6.47,0.21c0.24-0.03,2.18-4.34,2.38-6.35c-0.74,0.01-1.22-0.07-1.22-0.07 s-0.27-0.38-0.59-1.03c-0.18,0.85-0.41,1.69-0.7,2.49c-0.53,1.43-1.2,2.44-2.43,3.33c-2.51,1.81-5.41,3.09-8.18,4.44 c0.15-0.07-0.05-2.01-0.06-2.26c-0.04-0.84-0.11-1.67-0.24-2.5c-0.25-1.56-0.78-2.95-1.56-4.32c-1.16-2.04-4.38-4.96-6.32-11.38 c-0.49-0.09-1.17-0.26-1.95-0.56c0.41,2.52,0.87,4.8,2.18,7.07c0.71,1.23,1.43,2.45,2.22,3.64c0.96,1.43,1.68,2.83,2,4.53 c0.33,1.72,0.35,3.5,0.15,5.24c-0.53,4.5-3.68,6.84-3.68,6.84c-0.03,0.02-1.35-1.09-1.43-1.16c-1.21-0.91-2.48-1.75-3.82-2.46 c-3.59-1.93-7.58-2.52-11.54-1.89c0.01,0.07,0.01,0.11,0.01,0.11s-0.77,0.95-2.15,1.85c1.33-0.07,4.71-0.22,7.47,0.11 c2.96,0.35,5.78,1.84,7.94,3.86c2.45,2.29,3.71,5.1,3.98,8.43c0.3,3.79-0.83,7.52-2.15,11.03c0,0,3.75-2.59,4.91-8.3 c0.81-4.01,0-7.31,0-7.31s1.99-3.16,3.57-4.97c4.03-4.62,10.81-6.82,16.83-6.56c0.13-0.44,0.34-1.03,0.66-1.69 C66.46,50.55,66.53,50.43,66.6,50.3z"></path> <path class="st1" d="M47.3,42.02c1.86,2.87,3.25,5.35,3.15,9.44c0,0,2.92-0.93,3.59-1.89c0,0-1.2-4.93-1.58-6.2 c-0.35-1.16-0.7-2.43-0.42-3.65c0.34-1.51,1.2-2.86,2.15-4.06c0.09-0.12,0.2-0.25,0.3-0.37c-0.57,0.13-0.93,0.15-0.93,0.15 s-0.36-0.32-0.84-0.9c-1.41,1.55-2.51,3.33-2.99,5.39c0.02-0.08-1.77-1.82-2.28-2.39c-1.76-2.01-2.88-4.24-3.65-6.78 c-0.02-0.07-0.04-0.13-0.06-0.19c-0.56,1.08-1.21,1.83-1.56,2.18C43.28,36.16,45.35,38.99,47.3,42.02z"></path> <path class="st0" d="M41.95,32.97c0,0,0.1-0.09,0.24-0.23c0.35-0.35,1-1.09,1.56-2.18c0.84-1.65,1.44-4.07,0.31-7.07 c-2.33-6.17-7.89-7.08-7.89-7.08s-4.34,4.45-2.54,10.02c1.12,3.47,3.64,5.11,5.62,5.87c0.78,0.3,1.46,0.47,1.95,0.56 C41.65,32.95,41.95,32.97,41.95,32.97z"></path> <path class="st0" d="M53.56,35.44c0,0,0.36-0.02,0.93-0.15c1.68-0.37,5.16-1.67,6.48-6.12c1.88-6.33-2-10.41-2-10.41 s-6.14,0.92-8.08,6.44c-1.55,4.41,0.56,7.82,1.83,9.35C53.2,35.12,53.56,35.44,53.56,35.44z"></path> <path class="st0" d="M25.35,54.22c0,0-0.01-0.05-0.01-0.11c-0.02-0.18-0.09-0.57-0.24-1.08c-0.17-0.58-0.45-1.32-0.9-2.09 c-0.91-1.53-2.51-3.18-5.35-3.93C12.46,45.34,8.5,49.34,8.5,49.34s1.11,6.11,6.69,7.87c3.45,1.09,6.23,0.01,8-1.15 C24.57,55.17,25.35,54.22,25.35,54.22z"></path> <path class="st0" d="M31.03,42.76c0,0,0.2-0.27,0.46-0.76c0.79-1.5,2.08-5.04-0.53-8.95c-3.66-5.49-9.28-5.13-9.28-5.13 s-3.23,5.31-0.23,10.33c2.12,3.54,5.45,4.39,7.58,4.55C30.22,42.89,31.03,42.76,31.03,42.76z"></path> <path class="st0" d="M72.86,45.51c-3.42,0.75-5.27,2.94-6.26,4.79c-0.07,0.12-0.14,0.25-0.2,0.37c-0.32,0.66-0.53,1.24-0.66,1.69 c-0.14,0.48-0.2,0.8-0.2,0.8s0.15,0.22,0.44,0.53c0.51,0.56,1.47,1.44,2.86,2.08c1.49,0.68,3.47,1.07,5.93,0.41 c6.37-1.72,7.82-7.17,7.82-7.17S78.58,44.27,72.86,45.51z"></path> </g> </g> <g id="Layer_3"> </g> <g id="Layer_4"> </g> <g id="Layer_2"> </g> </svg> 