<svg width="100" height="100" viewBox="0 0 100 100" fill="none" xmlns="http://www.w3.org/2000/svg">
<path d="M99.2753 50.1189C99.2753 77.1046 77.2947 98.8364 50 98.8364C22.8261 98.8364 0.724609 77.1046 0.724609 50.1189C0.724609 23.1332 22.8261 1.40137 50 1.40137C77.2947 1.40137 99.2753 23.2526 99.2753 50.1189Z" stroke="#DAA751" stroke-width="1.162" stroke-miterlimit="10"/>
<path d="M92.1496 50.1187C92.1496 73.1638 73.309 91.791 49.9998 91.791C26.6907 91.791 7.8501 73.1638 7.8501 50.1187C7.8501 27.0735 26.8114 8.44629 49.9998 8.44629C73.1883 8.44629 92.1496 27.1929 92.1496 50.1187Z" stroke="#DAA751" stroke-width="0.872" stroke-miterlimit="10"/>
<path d="M58.0918 50.1191C58.0918 69.463 54.4686 85.2246 50 85.2246C45.5314 85.2246 41.9082 69.463 41.9082 50.1191C41.9082 30.7753 45.5314 15.0137 50 15.0137C54.4686 15.0137 58.0918 30.7753 58.0918 50.1191Z" stroke="#DAA751" stroke-width="0.581" stroke-miterlimit="10"/>
<path d="M49.9999 58.1191C30.4347 58.1191 14.4927 54.5371 14.4927 50.1191C14.4927 45.7012 30.4347 42.1191 49.9999 42.1191C69.5652 42.1191 85.5072 45.7012 85.5072 50.1191C85.5072 54.5371 69.6859 58.1191 49.9999 58.1191Z" stroke="#DAA751" stroke-width="0.581" stroke-miterlimit="10"/>
<path d="M55.6766 55.8507C41.9085 69.4629 28.0196 78.0601 24.8795 74.9555C21.7394 71.851 30.4351 58.2388 44.324 44.5072C58.2129 30.7756 71.981 22.1784 75.1211 25.2829C78.2612 28.3875 69.5655 42.1191 55.6766 55.8507Z" stroke="#DAA751" stroke-width="0.581" stroke-miterlimit="10"/>
<path d="M55.6766 44.5071C69.5655 58.2387 78.2612 71.8508 75.1211 74.9554C71.981 78.0599 58.2129 69.4627 44.324 55.7312C30.4351 42.119 21.7394 28.3874 24.8795 25.2829C28.0196 22.1784 41.9085 30.7755 55.6766 44.5071Z" stroke="#DAA751" stroke-width="0.581" stroke-miterlimit="10"/>
<path d="M57.8505 52.1489C52.778 70.8956 45.1693 85.1049 40.8215 84.0303C36.4736 82.9556 37.0775 66.7164 42.15 47.9697C47.3432 29.3424 54.9519 15.0137 59.179 16.2077C63.5268 17.4018 62.9229 33.5216 57.8505 52.1489Z" stroke="#DAA751" stroke-width="0.581" stroke-miterlimit="10"/>
<path d="M47.9466 57.8799C28.9852 52.8648 14.4925 45.3421 15.7002 41.0435C16.9079 36.7448 33.2123 37.3419 52.1736 42.357C71.0142 47.4915 85.507 55.0141 84.2992 59.1933C83.2123 63.492 66.9079 62.8949 47.9466 57.8799Z" stroke="#DAA751" stroke-width="0.581" stroke-miterlimit="10"/>
<path d="M54.1064 57.0447C37.0774 66.7165 21.4977 71.4927 19.3238 67.6718C17.0291 63.8508 29.1064 52.8655 46.0146 43.1936C63.0436 33.5218 78.6233 28.7456 80.7972 32.5665C82.9711 36.3875 71.0146 47.3728 54.1064 57.0447Z" stroke="#DAA751" stroke-width="0.581" stroke-miterlimit="10"/>
<path d="M57.0051 46.179C66.7877 63.015 71.6186 78.4182 67.7539 80.5675C63.8892 82.7168 52.778 70.8957 42.9954 54.1791C33.2128 37.343 28.3819 21.9398 32.2467 19.7905C36.1114 17.6412 47.2225 29.3429 57.0051 46.179Z" stroke="#DAA751" stroke-width="0.581" stroke-miterlimit="10"/>
<path d="M57.8505 48.0893C62.9229 66.8362 63.5268 82.9561 59.179 84.1502C54.8311 85.3443 47.2224 71.0154 42.15 52.2686C37.0775 33.5217 36.4736 17.4018 40.8215 16.2077C45.1693 15.0136 52.778 29.3425 57.8505 48.0893Z" stroke="#DAA751" stroke-width="0.581" stroke-miterlimit="10"/>
<path d="M52.0529 57.8799C33.2123 62.8949 16.9079 63.492 15.7002 59.1933C14.4925 54.8947 28.9852 47.3721 47.9466 42.357C66.9079 37.3419 83.2123 36.7448 84.42 41.0435C85.507 45.3421 71.0142 52.8648 52.0529 57.8799Z" stroke="#DAA751" stroke-width="0.581" stroke-miterlimit="10"/>
<path d="M57.0051 54.1788C47.2225 71.0149 36.1114 82.836 32.2467 80.5673C28.3819 78.418 33.2128 62.8953 42.9954 46.1786C52.778 29.3425 63.8892 17.5214 67.7539 19.7901C71.6186 21.9394 66.7877 37.3427 57.0051 54.1788Z" stroke="#DAA751" stroke-width="0.581" stroke-miterlimit="10"/>
<path d="M54.1062 43.1936C71.1352 52.8655 83.0918 63.8508 80.7971 67.6718C78.6232 71.4927 62.9227 66.7165 46.0144 57.0447C28.9854 47.3728 17.0289 36.3875 19.3236 32.5665C21.4975 28.7456 37.0772 33.5218 54.1062 43.1936Z" stroke="#DAA751" stroke-width="0.581" stroke-miterlimit="10"/>
<path d="M69.6861 50.1194C69.6861 60.8661 60.8697 69.4634 50.1209 69.4634C39.2513 69.4634 30.5557 60.7466 30.5557 50.1194C30.5557 39.4921 39.3721 30.7754 50.1209 30.7754C60.8697 30.7754 69.6861 39.3727 69.6861 50.1194Z" fill="#DAA751"/>
<path d="M54.4689 47.1337L51.2081 54.7759H48.9134L45.6525 47.1337V59.5522L46.1356 60.8657H41.667L42.1501 59.5522V40.805L41.667 39.3721H45.6525L50.0003 49.1636L54.3482 39.3721H58.3337L57.9714 40.805V59.5522L58.3337 60.8657H53.8651L54.3482 59.5522L54.4689 47.1337Z" fill="#383839"/>
</svg>
